<svg xmlns="http://www.w3.org/2000/svg" width="2000" height="2000" viewBox="0 0 2000 2000">
  <defs>
    <style>
      .cls-1 {
        fill: #f3ded8;
      }

      .cls-2 {
        fill: #b23915;
        stroke: #b23915;
      }

      .cls-2, .cls-3, .cls-4, .cls-5 {
        stroke-width: 2.51px;
        fill-rule: evenodd;
      }

      .cls-3 {
        fill: #863729;
        stroke: #863729;
      }

      .cls-4 {
        fill: #831b1b;
        stroke: #831b1b;
      }

      .cls-5 {
        fill: #181514;
        stroke: #181514;
      }
    </style>
  </defs>
  <rect class="cls-1" x="-4" y="-1" width="2024" height="2024"/>
  <path class="cls-2" d="M-11,479.87s149.514-108.762,324,5.579,269.4,29.38,289,11.159c43.929-40.849,293.887-256.486,500-11.159s358.21,34.208,395,0c54.3-50.494,334.87-254.788,502-43.7,1.62,3.272,21,1442.256,21,1442.256l-2038-.93Z"/>
  <path class="cls-3" d="M-92,850.127S61.218,744.472,220,812.515s229.728,49.65,272,36.4,81.6-59.876,123-61.271c59.008-1.989,94.715,61.752,171,53.385s65.223-80.081,160-83.718c110.17-4.227,96.37,86.418,284,76.438,189.38-10.073,220.82-161.863,307-175.928,102.95-16.8,157.79,87.835,186,104.95s84.04,91.457,273,3.64c2.1,1.861,4,1189.03,4,1189.03L-108,1970Z"/>
  <path class="cls-4" d="M-9,1158s207.782,196.92,632,4c79.971-42.83,302.07-132.98,484-12,264.97,64.13,254.89-150,534-150,125.44,0,228.31,128.22,360.72,147.73,0,54.19-.6,343.63-0.6,715.14-442.39.08-2008.491,0.19-2008.491,18.7C-7.371,1903.12-9,1158-9,1158Z"/>
  <path class="cls-5" d="M0,1468s374.332-285.44,645,4,546.84-71.91,506-17,112.42-177.9,308-36,388.21,117.76,476,36,82-114.99,82-88c0,14.96,11,2258,11,2258l-2048,7Z"/>
</svg>
