<svg xmlns="http://www.w3.org/2000/svg" width="2000" height="2000" viewBox="0 0 2000 2000">
  <defs>
    <style>
      .cls-1 {
        fill: #f3ded8;
      }

      .cls-2 {
        fill: #b23915;
        stroke: #b23915;
      }

      .cls-2, .cls-3, .cls-4, .cls-5 {
        stroke-width: 2.51px;
        fill-rule: evenodd;
      }

      .cls-3 {
        fill: #863729;
        stroke: #863729;
      }

      .cls-4 {
        fill: #831b1b;
        stroke: #831b1b;
      }

      .cls-5 {
        fill: #181514;
        stroke: #181514;
      }
    </style>
  </defs>
  <rect class="cls-1" x="-4" y="-1" width="2024" height="2024"/>
  <path class="cls-2" d="M-11,490s149.514-116.962,324,6,269.4,31.6,289,12c43.929-43.929,293.887-275.824,500-12s358.21,36.787,395,0c54.3-54.3,334.87-274,502-47,1.62,3.518,21,1551,21,1551l-2038-1Z"/>
  <path class="cls-3" d="M-92,976S61.218,801.837,220,914s229.728,81.843,272,60,81.6-98.7,123-101c59.008-3.278,94.715,101.792,171,88s65.223-132,160-138c110.17-6.968,96.37,142.451,284,126,189.38-16.605,220.82-266.815,307-290,102.95-27.7,157.79,144.787,186,173s84.04,150.757,273,6c2.1,3.068,4,1960,4,1960l-2108,24Z"/>
  <path class="cls-4" d="M-9,1158s207.782,196.92,632,4c79.971-42.83,302.07-132.98,484-12,264.97,64.13,254.89-150,534-150,158.64,0,281.17,205.06,473,136-0.17,5.43,0,1803,0,1803L-5,2935Z"/>
  <path class="cls-5" d="M0,1468s374.332-285.44,645,4,546.84-71.91,506-17,112.42-177.9,308-36,388.21,117.76,476,36,82-114.99,82-88c0,14.96,11,2258,11,2258l-2048,7Z"/>
</svg>
